<?xml version="1.0" ?><!DOCTYPE svg  PUBLIC '-//W3C//DTD SVG 1.1//EN'  'http://www.w3.org/Graphics/SVG/1.1/DTD/svg11.dtd'><svg enable-background="new 0 0 512 512" height="512px" id="Layer_1" version="1.1" viewBox="0 0 512 512" width="512px" xml:space="preserve" xmlns="http://www.w3.org/2000/svg" xmlns:xlink="http://www.w3.org/1999/xlink"><path d="M480,96H352V32c0-17.688-14.328-32-32-32H192c-17.672,0-32,14.312-32,32v64H32c-17.672,0-32,14.312-32,32v352  c0,17.688,14.328,32,32,32h448c17.672,0,32-14.312,32-32V128C512,110.312,497.672,96,480,96z M224,64h64v32h-64V64z M448,448H64V320  h128v32h128v-32h128V448z M448,288H320v-32H192v32H64V160h128h128h128V288z"/></svg>