<svg xmlns="http://www.w3.org/2000/svg" version="1.1" xmlns:xlink="http://www.w3.org/1999/xlink" xmlns:svgjs="http://svgjs.dev/svgjs" width="32" height="32" viewBox="0 0 1000 625"><g transform="matrix(1,0,0,1,0,0)"><svg viewBox="0 0 512 320" data-background-color="#ffffff" preserveAspectRatio="xMidYMid meet" height="625" width="1000" xmlns="http://www.w3.org/2000/svg" xmlns:xlink="http://www.w3.org/1999/xlink"><g id="tight-bounds" transform="matrix(1,0,0,1,0,0)"><svg viewBox="0 0 512 512" height="512" width="512"><g><svg></svg></g><g><svg viewBox="0 0 512 320" height="320" width="512"><g><path xmlns="http://www.w3.org/2000/svg" d="M96 160c0-88.366 71.634-160 160-160 88.366 0 160 71.634 160 160 0 88.366-71.634 160-160 160-88.366 0-160-71.634-160-160z" fill="#ff4136" fill-rule="nonzero" stroke="none" stroke-width="1" stroke-linecap="butt" stroke-linejoin="miter" stroke-miterlimit="10" stroke-dasharray="" stroke-dashoffset="0" style="mix-blend-mode: normal" data-fill-palette-color="tertiary"></path></g><g transform="matrix(1,0,0,1,194.732782369146,80)"><svg viewBox="0 0 122.53443526170797 160" height="160" width="122.53443526170797"><g><svg viewBox="0 0 122.53443526170797 160" height="160" width="122.53443526170797"><g><svg viewBox="0 0 122.53443526170797 160" height="160" width="122.53443526170797"><g><svg viewBox="0 0 122.53443526170797 160" height="160" width="122.53443526170797"><g id="textblocktransform"><svg viewBox="0 0 122.53443526170797 160" height="160" width="122.53443526170797" id="textblock"><g><svg viewBox="0 0 122.53443526170797 160" height="160" width="122.53443526170797"><g transform="matrix(1,0,0,1,0,0)"><svg width="122.53443526170797" viewBox="5.099999904632568 -36.29999923706055 27.80000114440918 36.29999923706055" height="160" data-palette-color="#ffffff"><path d="M10.5-36.3L10.5-22 10.35-20.2 11.1-21.25 25.3-36.3 32.2-36.3 17.2-20.55 32.9 0 26.15 0 13.3-17.2 10.5-14.45 10.5 0 5.1 0 5.1-36.3 10.5-36.3Z" opacity="1" transform="matrix(1,0,0,1,0,0)" fill="#ffffff" class="wordmark-text-0" data-fill-palette-color="quaternary" id="text-0"></path></svg></g></svg></g></svg></g></svg></g><g></g></svg></g></svg></g></svg></g></svg></g><defs></defs></svg><rect width="512" height="320" fill="none" stroke="none" visibility="hidden"></rect></g></svg></g></svg>